PathFileType	4	(X/Y/Z)	C:\Users\dbl\Desktop\LZH\BX\Trimmed_bx_n_10_501.trc
DataRate	CameraRate	NumFrames	NumMarkers	Units	OrigDataRate	OrigDataStartFrame	OrigNumFrames
50.00	50.00	      8	43	mm	50.00	547	      1457
Frame#	Time	Top.Head			R.Acromium			L.Acromium			Sternum			R.ASIS			L.ASIS			V.Sacral			R.Thigh.Upper			R.Thigh.Front			R.Thigh.Rear			R.Knee.Lat			R.Knee.Med			R.Shank.Upper			R.Shank.Front			R.Shank.Rear			R.Ankle.Lat			R.Midfoot.Lat			R.Toe.Lat			R.Toe.Tip			R.Toe.Med			R.Ankle.Med			R.Midfoot.Sup			R.Heel			L.Thigh.Upper			L.Thigh.Front			L.Thigh.Rear			L.Knee.Lat			L.Knee.Med			L.Shank.Upper			L.Shank.Front			L.Shank.Rear			L.Ankle.Lat			L.Midfoot.Lat			L.Toe.Lat			L.Toe.Tip			L.Toe.Med			L.Ankle.Med			L.Midfoot.Sup			L.Heel			origin1 front left			origin2 front right			origin 3 back right			origin 4 back leftt			
		X1	Y1	Z1	X2	Y2	Z2	X3	Y3	Z3	X4	Y4	Z4	X5	Y5	Z5	X6	Y6	Z6	X7	Y7	Z7	X8	Y8	Z8	X9	Y9	Z9	X10	Y10	Z10	X11	Y11	Z11	X12	Y12	Z12	X13	Y13	Z13	X14	Y14	Z14	X15	Y15	Z15	X16	Y16	Z16	X17	Y17	Z17	X18	Y18	Z18	X19	Y19	Z19	X20	Y20	Z20	X21	Y21	Z21	X22	Y22	Z22	X23	Y23	Z23	X24	Y24	Z24	X25	Y25	Z25	X26	Y26	Z26	X27	Y27	Z27	X28	Y28	Z28	X29	Y29	Z29	X30	Y30	Z30	X31	Y31	Z31	X32	Y32	Z32	X33	Y33	Z33	X34	Y34	Z34	X35	Y35	Z35	X36	Y36	Z36	X37	Y37	Z37	X38	Y38	Z38	X39	Y39	Z39	X40	Y40	Z40	X41	Y41	Z41	X42	Y42	Z42	X43	Y43	Z43	

547	10.920	-315.15601	248.78445	1753.69348	-483.78738	72.87673	1498.21509	-478.10797	429.91461	1492.47754	-478.96088	249.79588	1294.72107	-592.61945	127.93201	1024.45483	-566.92517	354.51349	1027.90344	-778.05798	254.70407	1073.89294	-667.54260	81.20401	830.93762	-577.86523	143.72807	810.67889	-683.16876	100.55930	718.26398	-688.39978	120.30573	602.96564	-663.83295	230.28290	564.18286	-711.95313	121.49312	536.76678	-633.30469	172.16081	529.05151	-716.48566	114.51476	484.79727	-685.67487	149.73560	211.71625	-607.85065	91.19666	166.13112	-561.09943	70.11871	162.74640	-481.94501	110.96183	157.14238	-527.79810	163.68462	163.92952	-637.33569	227.07353	222.83363	-591.19824	201.88976	173.13960	-719.28888	216.94604	169.00636	-658.06915	437.60370	855.14008	-574.06519	384.93619	816.35986	-673.80676	426.83231	741.27783	-680.52130	403.68799	605.34570	-667.88293	291.73740	570.21387	-693.18927	406.40823	559.03424	-633.90228	349.49603	538.64001	-742.73993	408.85666	492.21744	-679.74091	400.87564	214.02303	-581.12433	450.34009	164.46454	-542.45825	460.97653	157.42114	-480.22870	410.04626	165.93338	-523.29291	370.32101	177.65765	-645.07281	310.50967	210.98192	-594.51581	330.24979	170.98987	-732.33136	330.03098	161.16022	-443.85104	448.56042	147.06992	-450.45786	74.96716	143.87885	-806.30585	82.45328	142.25290	-799.65460	456.68143	145.41331	
548	10.940	-300.78735	248.54706	1742.22461	-474.29291	73.16904	1490.32544	-469.20825	429.57138	1484.71875	-478.18716	249.82294	1288.10522	-598.84851	128.33592	1023.31683	-572.78845	354.77731	1026.73938	-783.43011	255.50945	1074.98718	-673.58801	81.69117	830.73645	-583.68799	144.16806	810.94263	-688.14630	100.96832	717.93445	-692.19446	120.65499	602.72137	-667.34412	230.52261	563.98956	-715.17462	121.75598	536.43329	-636.47870	172.35532	529.17627	-719.28174	114.69910	484.33606	-686.05292	149.63507	211.66345	-607.89215	91.14594	166.04297	-561.12610	70.10918	162.70598	-482.05112	111.09541	157.15526	-527.88794	163.66644	164.01178	-637.70508	226.90077	223.17479	-591.31659	201.80136	173.29994	-719.43494	216.74663	168.92586	-663.19690	438.31506	854.99304	-579.19403	385.04755	816.60693	-678.09210	427.56482	740.97620	-683.86707	404.23325	605.03149	-671.37439	292.31989	570.09100	-696.22559	407.02655	558.72015	-636.93213	349.89783	538.74030	-745.33429	409.62537	491.52878	-680.04816	401.14658	213.83203	-581.18140	450.42679	164.38240	-542.45959	460.99503	157.39803	-480.31805	409.94037	165.87271	-523.39972	370.35916	177.63245	-645.45416	310.80554	211.00183	-594.67542	330.49222	171.11375	-732.40710	330.17618	161.13182	-443.90179	448.53271	146.99614	-450.45734	74.95235	143.86937	-806.32629	82.47249	142.24495	-799.62653	456.72229	145.41927	
549	10.960	-287.01807	248.28586	1730.29358	-464.70306	73.45318	1481.64783	-460.43768	429.15204	1476.25513	-477.41595	249.86298	1281.16785	-605.01166	128.75656	1022.14966	-578.71008	355.09686	1025.46301	-788.72290	256.32608	1076.00818	-679.54382	82.22253	830.47705	-589.45361	144.65251	811.17133	-693.06696	101.35520	717.58521	-695.96313	121.00491	602.45264	-670.86005	230.78339	563.77777	-718.39990	122.00893	536.10193	-639.62793	172.53333	529.28619	-722.04297	114.85952	483.87717	-686.44080	149.52824	211.63539	-607.92584	91.10198	165.97771	-561.14880	70.09536	162.67059	-482.16568	111.22543	157.15077	-527.95319	163.66899	164.09245	-638.13257	226.75175	223.45854	-591.48535	201.68875	173.43803	-719.57898	216.53833	168.83176	-668.32434	439.06781	854.76941	-584.28448	385.25272	816.83112	-682.39032	428.32910	740.62372	-687.23505	404.79572	604.68365	-674.91138	292.94626	569.93536	-699.27185	407.65756	558.37268	-639.98999	350.32220	538.77789	-747.94128	410.39603	490.81744	-680.31683	401.40427	213.62206	-581.22974	450.51840	164.30823	-542.46869	461.02478	157.36464	-480.40729	409.83047	165.79338	-523.50964	370.40076	177.61140	-645.84344	311.14905	211.02222	-594.80176	330.68695	171.23662	-732.45172	330.31339	161.08727	-443.94632	448.50934	146.92661	-450.45816	74.93960	143.86133	-806.34747	82.49442	142.23659	-799.58575	456.80136	145.45908	
550	10.980	-273.81805	248.04121	1717.97546	-455.13779	73.66991	1472.28125	-451.88550	428.72144	1467.21716	-476.62091	249.91495	1273.97974	-610.99756	129.21156	1020.97241	-584.57819	355.50122	1024.09851	-793.83960	257.13501	1076.95166	-685.32251	82.78329	830.17841	-595.08350	145.18359	811.34949	-697.84680	101.70801	717.22211	-699.64404	121.34093	602.16400	-674.34161	231.06262	563.54468	-721.56049	122.23791	535.76941	-642.70605	172.69658	529.39166	-724.71246	114.98268	483.44403	-686.83160	149.39502	211.62036	-607.95270	91.05522	165.93651	-561.16730	70.07481	162.64079	-482.28510	111.35361	157.13226	-528.00055	163.68739	164.17015	-638.60596	226.61943	223.68417	-591.69867	201.55063	173.55516	-719.71863	216.32898	168.73882	-673.43524	439.85049	854.46948	-589.32422	385.56430	817.00848	-686.69617	429.12238	740.22388	-690.61688	405.37338	604.29968	-678.45630	293.59088	569.75452	-702.32507	408.29202	557.99365	-643.06885	350.76718	538.76874	-750.54694	411.15164	490.07892	-680.54907	401.64459	213.41931	-581.26593	450.61603	164.24055	-542.48700	461.06799	157.31599	-480.50546	409.72589	165.69817	-523.61841	370.44968	177.59633	-646.20862	311.50891	211.08731	-594.90546	330.84991	171.35730	-732.45648	330.43802	161.02419	-443.98019	448.49551	146.87619	-450.45923	74.93236	143.85571	-806.37012	82.51717	142.23372	-799.53833	456.91162	145.53455	
551	11.000	-261.17114	247.83682	1705.35913	-445.69681	73.77950	1462.33411	-443.61978	428.33786	1457.74255	-475.77646	249.98386	1266.60754	-616.71509	129.72662	1019.78601	-590.29956	356.00751	1022.66425	-798.69897	257.91257	1077.81775	-690.84906	83.35233	829.86194	-600.50690	145.76392	811.46527	-702.41431	102.02200	716.85107	-703.18164	121.65247	601.85913	-677.75079	231.34872	563.28760	-724.59009	122.43382	535.42822	-645.67792	172.85524	529.49731	-727.24805	115.06075	483.05005	-687.21265	149.22073	211.60651	-607.97253	90.99809	165.91528	-561.18103	70.04732	162.61630	-482.39987	111.48555	157.10332	-528.04285	163.71712	164.23949	-639.10291	226.48997	223.86879	-591.94153	201.39276	173.65167	-719.85175	216.12315	168.65865	-678.51678	440.65939	854.10486	-594.31488	385.97992	817.11359	-691.00531	429.94434	739.78290	-694.00275	405.96118	603.88098	-681.97156	294.22711	569.55243	-705.38422	408.91449	557.58472	-646.15814	351.22864	538.73535	-753.14301	411.87790	489.31418	-680.75568	401.87534	213.24649	-581.29053	450.72076	164.17514	-542.51392	461.12582	157.24638	-480.61536	409.63571	165.59625	-523.72321	370.50970	177.58545	-646.52228	311.84262	211.22388	-594.99677	330.99399	171.47536	-732.42090	330.54480	160.94360	-444.00177	448.49045	146.85301	-450.45956	74.93297	143.85379	-806.39594	82.54099	142.23857	-799.49408	457.03174	145.63094	
552	11.020	-249.07883	247.67195	1692.54260	-436.45532	73.77444	1451.91577	-435.68475	428.03543	1447.95923	-474.87277	250.08345	1259.10535	-622.10388	130.32599	1018.57654	-595.81543	356.61945	1021.16852	-803.24878	258.63513	1078.61365	-696.06628	83.90926	829.54492	-605.66644	146.39536	811.51355	-706.71893	102.29993	716.47552	-706.53339	121.93581	601.53937	-681.05420	231.62279	563.00305	-727.43701	122.59410	535.07166	-648.52032	173.02663	529.60101	-729.62585	115.09280	482.69635	-687.56653	149.00148	211.58426	-607.98370	90.92803	165.90652	-561.18945	70.01531	162.59676	-482.49603	111.62726	157.06824	-528.09406	163.75563	164.28998	-639.59753	226.34903	224.03841	-592.19421	201.22641	173.72676	-719.97687	215.92137	168.59798	-683.56006	441.49545	853.69373	-599.26501	386.48764	817.12952	-695.31238	430.79416	739.30902	-697.38013	406.54935	603.43378	-685.42078	294.82880	569.33002	-708.44537	409.50388	557.14838	-649.23883	351.69965	538.69684	-755.72290	412.56061	488.53113	-680.95105	402.11041	213.11571	-581.30756	450.83353	164.10725	-542.54785	461.19815	157.15224	-480.73227	409.56573	165.50073	-523.82324	370.58340	177.57480	-646.76971	312.11063	211.43181	-595.08173	331.12381	171.59212	-732.35321	330.62796	160.85179	-444.01242	448.48962	146.85594	-450.45917	74.94177	143.85690	-806.42645	82.56818	142.24834	-799.46271	457.13263	145.72096	
553	11.040	-237.55801	247.52109	1679.62366	-427.46268	73.68069	1441.13098	-428.09781	427.81647	1437.97656	-473.92645	250.23560	1251.51123	-627.13892	131.02275	1017.32263	-601.10406	357.32968	1019.60913	-807.47473	259.28427	1079.35425	-700.93854	84.44057	829.23572	-610.52417	147.07813	811.49689	-710.73578	102.55082	716.09509	-709.67511	122.19411	601.20465	-684.22858	231.86174	562.68445	-730.07397	122.72218	534.69757	-651.22137	173.23087	529.69647	-731.83917	115.08469	482.37399	-687.87433	148.74490	211.54842	-607.98346	90.84915	165.90189	-561.19171	69.98334	162.58232	-482.55893	111.78175	157.03186	-528.16376	163.80302	164.30789	-640.06671	226.18779	224.21677	-592.43579	201.06517	173.78001	-720.09314	215.72089	168.55919	-688.55835	442.35876	853.25317	-604.18073	387.07092	817.05328	-699.60901	431.66544	738.81006	-700.73431	407.12360	602.96796	-688.77057	295.37180	569.08777	-711.49933	410.03769	556.68970	-652.28369	352.16928	538.66095	-758.27795	413.18414	487.74261	-681.14685	402.36124	213.02586	-581.32343	450.95444	164.03355	-542.58649	461.28333	157.03490	-480.84674	409.51663	165.42378	-523.91931	370.67065	177.55991	-646.95154	312.28976	211.68622	-595.16089	331.23654	171.71034	-732.26776	330.68320	160.76146	-444.01556	448.48846	146.87601	-450.45944	74.95687	143.86566	-806.46130	82.60222	142.25592	-799.45026	457.18774	145.77487	
554	11.060	-226.63266	247.34149	1666.68774	-418.74249	73.54823	1430.07568	-420.84686	427.65503	1427.88293	-472.98120	250.46510	1243.85083	-631.82947	131.81190	1016.00439	-606.17133	358.12317	1017.97894	-811.40228	259.85098	1080.05994	-705.45618	84.94227	828.93188	-615.06677	147.81047	811.42462	-714.46631	102.78707	715.70624	-712.60217	122.43475	600.85626	-687.26508	232.04274	562.32184	-732.50104	122.82533	534.30988	-653.77844	173.48401	529.77820	-733.89380	115.04752	482.06912	-688.12048	148.46658	211.49928	-607.96869	90.77120	165.89476	-561.18677	69.95676	162.57384	-482.57809	111.94695	156.99838	-528.25385	163.86168	164.28079	-640.49353	226.00641	224.41606	-592.64844	200.92105	173.81354	-720.19897	215.51768	168.54176	-693.50226	443.24387	852.79388	-609.05719	387.71201	816.89551	-703.88171	432.54279	738.29181	-704.04907	407.66690	602.49408	-691.99451	295.83710	568.82971	-714.53137	410.49808	556.21564	-655.26294	352.62265	538.62170	-760.79639	413.73212	486.96176	-681.34790	402.62952	212.96573	-581.34491	451.08185	163.95297	-542.62701	461.37769	156.90161	-480.94943	409.48453	165.37154	-524.01324	370.76749	177.53708	-647.08234	312.38107	211.94875	-595.23138	331.32724	171.83240	-732.18066	330.71072	160.69101	-444.01523	448.48465	146.90042	-450.46289	74.97438	143.87904	-806.49860	82.64626	142.25270	-799.45612	457.18298	145.77199	
